<svg xmlns="http://www.w3.org/2000/svg" xmlns:xlink="http://www.w3.org/1999/xlink" version="1.1" id="Your_Icon" x="0px" y="0px" width="100px" height="100px" viewBox="0 0 100 100" enable-background="new 0 0 100 100" xml:space="preserve">
<path fill="#000000" d="M94,88.451c0,0-4.102-3.552-9.551-7.558c-5.447-4.005-37.607-30.81-37.618-30.817L28.482,31.582  l55.557,41.349c1.254-3.221,1.553-7.587,0.457-13.443c-6.965-37.248-40.565-43.319-48.514-44.642  c-4.84-0.806-30.285-4.123-31.824-4.167c0.279,1.514,7.438,26.155,8.972,30.817c2.519,7.654,13.645,39.934,51.517,41.137  c5.043,0.161,8.873-0.505,11.748-1.762L91.916,92L94,88.451z"/>
</svg>