<?xml version="1.0" encoding="iso-8859-1"?>
<!-- Generator: Adobe Illustrator 17.1.0, SVG Export Plug-In . SVG Version: 6.00 Build 0)  -->
<!DOCTYPE svg PUBLIC "-//W3C//DTD SVG 1.1//EN" "http://www.w3.org/Graphics/SVG/1.1/DTD/svg11.dtd">
<svg version="1.1" id="Layer_1" xmlns="http://www.w3.org/2000/svg" xmlns:xlink="http://www.w3.org/1999/xlink" x="0px" y="0px"
	 viewBox="0 0 13 14" style="enable-background:new 0 0 13 14;" xml:space="preserve">
<path style="fill:#58595B;" d="M12,1.172C10.85,0.469,8.82,0,6.5,0C4.182,0,2.15,0.469,1,1.172C0.371,1.557,0,2.012,0,2.5v9
	c0,0.488,0.371,0.943,1,1.328C2.15,13.531,4.182,14,6.5,14c2.32,0,4.35-0.469,5.5-1.172c0.631-0.385,1-0.84,1-1.328v-9
	C13,2.012,12.631,1.557,12,1.172z M12,11.498C11.934,11.934,9.926,13,6.5,13c-3.426,0-5.434-1.066-5.5-1.498V9.828
	C2.15,10.531,4.182,11,6.5,11c2.32,0,4.35-0.469,5.5-1.172V11.498z M12,8.498C11.934,8.934,9.926,10,6.5,10
	C3.074,10,1.066,8.934,1,8.502V6.828C2.15,7.531,4.182,8,6.5,8c2.32,0,4.35-0.469,5.5-1.172V8.498z M12,5.498
	C11.934,5.934,9.926,7,6.5,7C3.074,7,1.066,5.934,1,5.502V3.828C2.15,4.531,4.182,5,6.5,5c2.32,0,4.35-0.469,5.5-1.172V5.498z
	 M6.5,4C3.074,4,1.066,2.934,1,2.502C1.066,2.066,3.074,1,6.5,1c3.426,0,5.434,1.066,5.5,1.498C11.934,2.934,9.926,4,6.5,4z"/>
</svg>
